<?xml version="1.0" encoding="utf-8"?>
<!-- Generator: Adobe Illustrator 15.0.0, SVG Export Plug-In  -->
<!DOCTYPE svg PUBLIC "-//W3C//DTD SVG 1.1//EN" "http://www.w3.org/Graphics/SVG/1.1/DTD/svg11.dtd" [
	<!ENTITY ns_flows "http://ns.adobe.com/Flows/1.0/">
]>
<svg version="1.1"
	 xmlns="http://www.w3.org/2000/svg" xmlns:xlink="http://www.w3.org/1999/xlink" xmlns:a="http://ns.adobe.com/AdobeSVGViewerExtensions/3.0/"
	 x="0px" y="0px" width="50px" height="57px" viewBox="0 0 50 57" overflow="visible" enable-background="new 0 0 50 57"
	 xml:space="preserve">
<defs>
</defs>
<polygon fill="#999999" points="15.016,5.618 5.584,5.618 9.029,2.175 4.883,2.175 0,7.059 4.883,11.941 9.029,11.941 5.584,8.498 
	15.016,8.498 "/>
<polygon fill="#999999" points="44.715,2.175 40.568,2.175 44.014,5.618 34.582,5.618 34.582,8.498 44.014,8.498 40.568,11.941 
	44.715,11.941 49.598,7.059 "/>
<path fill="#999999" d="M16.651,57.318h27.32v-5.943c0-0.846-0.688-1.533-1.533-1.533H18.184c-0.845,0-1.533,0.688-1.533,1.533
	V57.318z"/>
<path fill="#999999" d="M45.062,20.808l-14.321-4.09V6.493C30.742,2.23,27.751,0,24.798,0c-2.953,0-5.942,2.23-5.942,6.493
	c0,4.215,0.021,13.415,0.032,17.534l0.004,1.365l-6.138-4.695c-0.269-0.207-0.587-0.316-0.925-0.316c-0.412,0-0.8,0.16-1.093,0.453
	l-3.659,3.664c-0.462,0.465-0.579,1.172-0.29,1.762l10.02,20.332c0.261,0.525,0.789,0.854,1.376,0.854h22.05
	c0.582,0,1.11-0.324,1.372-0.848l4.408-8.818c0.107-0.211,0.162-0.449,0.162-0.686V22.283
	C46.176,21.603,45.719,20.996,45.062,20.808z M43.111,36.73l-3.827,7.648H19.138l-9.114-18.492l1.936-1.939l7.545,5.773
	c0.454,0.35,1.1,0.412,1.609,0.156c0.508-0.25,0.808-1.01,0.807-1.602V5.391c0-2.53,1.55-3.428,2.877-3.428s2.877,0.897,2.877,3.428
	v12.482c0,0.681,0.459,1.287,1.113,1.476l14.323,4.09V36.73z"/>
</svg>
