<?xml version="1.0" encoding="utf-8"?>
<!-- Generator: Adobe Illustrator 15.0.0, SVG Export Plug-In  -->
<!DOCTYPE svg PUBLIC "-//W3C//DTD SVG 1.1//EN" "http://www.w3.org/Graphics/SVG/1.1/DTD/svg11.dtd" [
	<!ENTITY ns_flows "http://ns.adobe.com/Flows/1.0/">
]>
<svg version="1.1"
	 xmlns="http://www.w3.org/2000/svg" xmlns:xlink="http://www.w3.org/1999/xlink" xmlns:a="http://ns.adobe.com/AdobeSVGViewerExtensions/3.0/"
	 x="0px" y="0px" width="320px" height="240px" viewBox="-21.352 -12.401 320 240"
	 overflow="visible" enable-background="new -21.352 -12.401 320 240" xml:space="preserve">
<defs>
</defs>
<g>
	<g>
		<path fill="#4D4D4D" d="M195.662,153.425v-72.21c0-30.316-2.834-51.562-2.834-51.562s-20.355,14.346-29.201,54.146
			c-7.002,31.508-9.207,65.43-9.207,65.43s26.535-0.186,28.123,3.19c1.59,3.379-1.66,12.79-1.66,23.722
			c0,10.926,1.391,16.009,0.199,20.18c-1.191,4.174-4.047,5.245-4.172,7.154s0.199,11.724,10.334,11.724
			c2.814,0,6.936-2.695,7.73-9.722C196.273,193.986,196.654,171.127,195.662,153.425z M186.623,207.141
			c-1.299,0-2.352-1.046-2.352-2.348c0-1.299,1.053-2.354,2.352-2.354c1.301,0,2.348,1.055,2.348,2.354
			C188.971,206.095,187.924,207.141,186.623,207.141z M188.516,186.556c-1.299,0-2.35-1.053-2.35-2.353
			c0-1.301,1.051-2.352,2.35-2.352s2.352,1.051,2.352,2.352C190.867,185.503,189.814,186.556,188.516,186.556z M188.879,166.557
			c-1.297,0-2.35-1.053-2.35-2.351c0-1.299,1.053-2.353,2.35-2.353s2.35,1.054,2.35,2.353
			C191.229,165.504,190.176,166.557,188.879,166.557z"/>
	</g>
</g>
<g>
	<path fill="#4D4D4D" d="M245.967,85.5V69.133c0-16.563,4.285-25.135,21.238-25.135h4.092V31.331h-6.627
		c-23.186,0-34.486,12.471-34.486,36.243v13.833c0,20.069-5.457,33.904-25.721,33.904h-1.756v14.03h1.756
		c20.068,0,25.721,14.224,25.721,33.901v14.031c0,23.382,10.91,36.243,34.486,36.243h6.627V200.85h-4.092
		c-16.953,0-21.238-8.566-21.238-25.135V159.35c0-19.486-7.99-31.177-24.746-36.829C237.783,116.673,245.967,105.373,245.967,85.5z"
		/>
</g>
<path fill="#66B360" d="M153.727,0H11.804C5.285,0,0,5.285,0,11.811v23.315C0,41.648,5.285,46.94,11.804,46.94l80.322,0.007
	c10.884,0,35.959,29.699,35.959,29.699s-10-29.699,0.673-29.699l24.969-0.007c6.523,0,11.814-5.292,11.814-11.814V11.811
	C165.541,5.285,160.25,0,153.727,0z"/>
<path fill="#FFFFFF" d="M16.252,27.789v-7.848h-0.564c-0.819,0-1.468-0.649-1.468-1.468s0.648-1.468,1.468-1.468h0.564v-2.541
	c0-0.932,0.762-1.693,1.722-1.693c0.932,0,1.693,0.762,1.693,1.693v2.541h2.683c0.818,0,1.496,0.649,1.496,1.468
	s-0.678,1.468-1.496,1.468h-2.683v7.312c0,1.326,0.678,1.863,1.835,1.863c0.396,0,0.734-0.085,0.848-0.085
	c0.762,0,1.439,0.621,1.439,1.411c0,0.621-0.424,1.129-0.903,1.327c-0.734,0.254-1.439,0.395-2.343,0.395
	C18.03,32.164,16.252,31.063,16.252,27.789z"/>
<path fill="#FFFFFF" d="M27.15,12.856c0-0.932,0.734-1.694,1.693-1.694c0.96,0,1.723,0.763,1.723,1.694v6.436
	c0.96-1.383,2.343-2.597,4.657-2.597c3.359,0,5.308,2.258,5.308,5.702v7.96c0,0.96-0.734,1.694-1.694,1.694
	s-1.722-0.734-1.722-1.694v-6.916c0-2.314-1.157-3.642-3.189-3.642c-1.977,0-3.359,1.384-3.359,3.698v6.859
	c0,0.96-0.763,1.694-1.723,1.694c-0.931,0-1.693-0.734-1.693-1.694V12.856z"/>
<path fill="#FFFFFF" d="M43.667,27.619v-0.056c0-3.219,2.513-4.799,6.154-4.799c1.665,0,2.851,0.254,4.009,0.621v-0.367
	c0-2.117-1.299-3.246-3.698-3.246c-1.299,0-2.371,0.226-3.303,0.593c-0.197,0.056-0.367,0.084-0.536,0.084
	c-0.791,0-1.44-0.621-1.44-1.411c0-0.621,0.424-1.157,0.932-1.355c1.412-0.536,2.852-0.875,4.799-0.875
	c2.23,0,3.896,0.593,4.94,1.666c1.101,1.072,1.609,2.653,1.609,4.602v7.339c0,0.932-0.734,1.638-1.666,1.638
	c-0.988,0-1.665-0.678-1.665-1.439v-0.565c-1.017,1.214-2.569,2.174-4.855,2.174C46.151,32.221,43.667,30.612,43.667,27.619z
	 M53.886,26.547V25.53c-0.875-0.338-2.032-0.593-3.387-0.593c-2.202,0-3.501,0.932-3.501,2.484v0.057
	c0,1.439,1.271,2.258,2.908,2.258C52.164,29.736,53.886,28.438,53.886,26.547z"/>
<path fill="#FFFFFF" d="M61.229,18.559c0-0.96,0.733-1.723,1.693-1.723s1.722,0.763,1.722,1.723v0.733
	c0.96-1.383,2.343-2.597,4.658-2.597c3.359,0,5.307,2.258,5.307,5.702v7.96c0,0.96-0.733,1.694-1.693,1.694
	s-1.722-0.734-1.722-1.694v-6.916c0-2.314-1.158-3.642-3.19-3.642c-1.976,0-3.359,1.384-3.359,3.698v6.859
	c0,0.96-0.762,1.694-1.722,1.694c-0.932,0-1.693-0.734-1.693-1.694V18.559z"/>
<path fill="#FFFFFF" d="M78.734,12.856c0-0.932,0.734-1.694,1.693-1.694c0.96,0,1.723,0.763,1.723,1.694v11.009l6.407-6.295
	c0.452-0.452,0.876-0.734,1.469-0.734c0.903,0,1.496,0.734,1.496,1.553c0,0.564-0.282,0.988-0.763,1.439l-3.952,3.642l4.517,5.9
	c0.311,0.423,0.452,0.733,0.452,1.129c0,0.932-0.734,1.553-1.609,1.553c-0.678,0-1.072-0.226-1.496-0.763l-4.263-5.674l-2.258,2.146
	v2.597c0,0.96-0.763,1.694-1.723,1.694c-0.931,0-1.693-0.734-1.693-1.694V12.856z"/>
<path fill="#FFFFFF" d="M103.918,36.088c-0.508-0.169-1.072-0.593-1.072-1.411c0-0.847,0.649-1.411,1.383-1.411
	c0.283,0,0.452,0.057,0.621,0.112c0.396,0.113,0.706,0.198,1.186,0.198c1.017,0,1.553-0.424,2.117-1.581l0.113-0.311l-5.533-12.364
	c-0.112-0.254-0.197-0.593-0.197-0.818c0-0.96,0.734-1.666,1.693-1.666c0.876,0,1.355,0.509,1.666,1.299l4.009,9.908l3.726-9.908
	c0.282-0.706,0.763-1.299,1.638-1.299c0.903,0,1.637,0.706,1.637,1.609c0,0.282-0.084,0.649-0.141,0.818l-5.448,13.07
	c-1.271,3.049-2.625,4.178-5.024,4.178C105.33,36.512,104.624,36.37,103.918,36.088z"/>
<path fill="#FFFFFF" d="M118.714,24.543v-0.057c0-4.263,3.388-7.791,7.96-7.791c4.573,0,7.933,3.472,7.933,7.734v0.057
	c0,4.234-3.388,7.763-7.988,7.763C122.073,32.249,118.714,28.777,118.714,24.543z M131.19,24.543v-0.057
	c0-2.625-1.891-4.799-4.572-4.799c-2.738,0-4.489,2.146-4.489,4.742v0.057c0,2.597,1.892,4.771,4.545,4.771
	C129.44,29.257,131.19,27.111,131.19,24.543z"/>
<path fill="#FFFFFF" d="M151.32,30.357c0,0.932-0.762,1.694-1.721,1.694c-0.932,0-1.723-0.734-1.723-1.694v-0.762
	c-0.959,1.411-2.342,2.625-4.658,2.625c-3.359,0-5.307-2.258-5.307-5.73v-7.932c0-0.96,0.762-1.723,1.693-1.723
	c0.961,0,1.723,0.763,1.723,1.723v6.916c0,2.314,1.158,3.613,3.189,3.613c1.977,0,3.359-1.355,3.359-3.67v-6.859
	c0-0.96,0.762-1.723,1.723-1.723c0.932,0,1.721,0.763,1.721,1.723V30.357z"/>
</svg>
